<svg id="ebQoqy5NJv11" xmlns="http://www.w3.org/2000/svg" xmlns:xlink="http://www.w3.org/1999/xlink" viewBox="0 0 300 300" shape-rendering="geometricPrecision" text-rendering="geometricPrecision" project-id="ee4fa2ecd86b409aa82fcf6e00b00e4e" export-id="509c9576e4b64cfab0243896ae00934e" cached="false"><g transform="matrix(1.585735 0 0 1.585735-87.860262-87.860262)"><g transform="matrix(.788978 0 0 1 38.998158 40.419683)"><path d="M42.30349,164.74932c-2.16465,0-3.91944-1.29729-3.91944-2.89757v-45.96749c0-1.60028,1.75479-2.89757,3.91944-2.89757h97.50851c2.16465,0,3.91944,1.29729,3.91944,2.89757v45.96749c0,1.60028-1.75479,2.89757-3.91944,2.89757h-42.9944c-.77459,1.65857-3.06047,2.86051-5.75985,2.86051s-4.98526-1.20193-5.75985-2.86051h-42.99441Z" fill="#fff" stroke="#000"/><path d="M43.154926,248.123072c0,0,15.675569-4.056581,22.712386-4.140893c7.758784-.092962,25.19043,4.140893,25.19043,4.140893v47.620266c0,0-17.369123-4.924004-25.127907-4.831042-7.036817.084312-22.77491,4.831042-22.77491,4.831042l.000001-47.620266Z" transform="translate(47.902817-137.877926)" fill="#fff" stroke="#010101" stroke-width="0.6"/><path d="M43.154926,248.123072c0,0,15.675569-4.056581,22.712386-4.140893c7.758784-.092962,25.19043,4.140893,25.19043,4.140893v47.620266c0,0-17.369123-4.924004-25.127907-4.831042-7.036817.084312-22.77491,4.831042-22.77491,4.831042l.000001-47.620266Z" transform="translate(.000001-137.772191)" fill="#fff" stroke="#000" stroke-width="0.6"/><path d="M48.746805,116.945239c.351447,0,6.103819-2.641973,17.660255-2.635859c5.68136.003006,13.100219,2.029611,18.714598,2.899444" transform="translate(.000001 0.000001)" fill="none" stroke="#d0d0d0" stroke-width="5" stroke-linecap="round"/><path d="M48.746805,116.945239c.351447,0,6.103819-2.641973,17.660255-2.635859c5.68136.003006,13.100219,2.029611,18.714598,2.899444" transform="translate(48.000001 0.000001)" fill="none" stroke="#d0d0d0" stroke-width="5" stroke-linecap="round"/><path d="M48.746805,116.945239c.351447,0,6.103819-2.641973,17.660255-2.635859c5.68136.003006,13.100219,2.029611,18.714598,2.899444" transform="translate(.000001 11.000001)" fill="none" stroke="#d0d0d0" stroke-width="5" stroke-linecap="round"/><path d="M48.746805,116.945239c.351447,0,6.103819-2.641973,17.660255-2.635859c5.68136.003006,13.100219,2.029611,18.714598,2.899444" transform="translate(.000001 23.000001)" fill="none" stroke="#d0d0d0" stroke-width="5" stroke-linecap="round"/><g transform="matrix(.246442 0 0 0.246442 93.510574 76.456541)"><path d="M42.80395,232.71233c0-20.69735,19.51494-37.47587,43.58784-37.47587s43.58784,16.77852,43.58784,37.47587-19.51494,37.47587-43.58784,37.47587c-5.14617,0-10.08404-.76677-14.66749-2.17468L48.27256,281.44704l10.9724-19.4127c-10.01961-6.86631-16.44101-17.44942-16.44101-29.32201Z" fill="#fff" stroke="#000"/><ellipse rx="8.202872" ry="6.433626" transform="translate(61.944015 230.943081)" fill="#fff" stroke="#000"/><ellipse rx="8.202872" ry="6.433626" transform="translate(87.944015 230.40667)" fill="#fff" stroke="#000"/><ellipse rx="8.202872" ry="6.433626" transform="translate(112.944015 230.943081)" fill="#fff" stroke="#000"/></g></g><g transform="matrix(.491265 0 0 0.510436 102.433671 3.746527)"><path d="M64.62752,219.76995c-2.76142,0-5-2.23858-5-5v-87.62874c0-2.76142,2.23858-5,5-5h135.23284c2.76142,0,5,2.23858,5,5v87.62874c0,2.76142-2.23858,5-5,5h-57.98337v23.27815h26.33206v13.07323h-71.93022v-13.07323h26.33207v-23.27815h-57.98338Z" fill="#fff" stroke="#000"/><rect width="145.232842" height="97.628743" rx="5" ry="5" transform="matrix(.918504 0 0 0.810105 65.54547 128.410809)" fill="#fff" stroke="#000"/><ellipse rx="20.37611" ry="20.37611" transform="translate(131.821173 165.353345)" fill="#fff" stroke="#000"/><path d="M60.54391,117.28854L36.05461,143.618l-.58749-.54643v-49.10721l25.07679,23.32418Z" transform="matrix(.768284 0 0 0.413253 96.362074 116.262533)" fill="#fff" stroke="#000"/></g><g transform="matrix(.539784 0 0 0.539784 150.013935 90.221845)"><rect width="99.923035" height="139.05147" rx="5" ry="5" transform="matrix(.940041 0 0 0.946452 45.947555 138.060734)" fill="#fff" stroke="#000"/><ellipse rx="29.91742" ry="29.91742" transform="matrix(.596046 0 0 0.596046 78.592149 137.33777)" fill="#fff" stroke="#000"/><path d="M169.648775,176.228181q0,.543953,7.796678,12.510921l35.900904-24.47789" transform="matrix(.38038 0 0 0.38038 5.381535 70.20064)" fill="none" stroke="#000" stroke-width="10" stroke-linecap="round"/><ellipse rx="21.970928" ry="21.970928" transform="matrix(.439553 0 0 0.439553 62.480238 174.988588)" fill="none" stroke="#d0d0d0" stroke-width="5"/><ellipse rx="21.970928" ry="21.970928" transform="matrix(.439553 0 0 0.439553 62.849008 207.504765)" fill="none" stroke="#d0d0d0" stroke-width="5"/><ellipse rx="21.970928" ry="21.970928" transform="matrix(.439553 0 0 0.439553 62.480238 240.988588)" fill="none" stroke="#d0d0d0" stroke-width="5"/><path d="M169.648775,176.228181q0,.543953,7.796678,12.510921l35.900904-24.47789" transform="matrix(.38038 0 0 0.38038-7.560526 107.244843)" fill="none" stroke="#000" stroke-width="10" stroke-linecap="round"/><line x1="-15" y1="0" x2="15" y2="0" transform="matrix(1.757117 0 0 1 107.630592 171.081866)" fill="none" stroke="#d0d0d0" stroke-width="5" stroke-linecap="round"/><line x1="-15" y1="0" x2="15" y2="0" transform="matrix(1.216784 0 0 1 99.630592 205.081866)" fill="none" stroke="#d0d0d0" stroke-width="5" stroke-linecap="round"/><line x1="-15" y1="0" x2="15" y2="0" transform="matrix(1.093721 0 0 1 97.176057 237.081866)" fill="none" stroke="#d0d0d0" stroke-width="5" stroke-linecap="round"/><line x1="-15" y1="0" x2="15" y2="0" transform="matrix(1.279398 0 0 1 99.630592 180.081866)" fill="none" stroke="#d0d0d0" stroke-width="5" stroke-linecap="round"/></g></g></svg>
