<svg id="eXAwoqE3B5b1" xmlns="http://www.w3.org/2000/svg" xmlns:xlink="http://www.w3.org/1999/xlink" viewBox="0 0 300 300" shape-rendering="geometricPrecision" text-rendering="geometricPrecision" project-id="ee4fa2ecd86b409aa82fcf6e00b00e4e" export-id="7e8e4bc9127947f59455982a4bc51522" cached="false"><g transform="matrix(.290758 0 0 0.290758 4.621 37.491192)"><g><path d="M268.7,675.9l-1-.2-.6-.2-6.1.2h-2.2l-3.9.1h-.8l-2.3.1h-1.9l-5.6.1-.5-.1-3.2-.4h-10.1l-.8-.7-4-3.1-.9-.7v-1.9l-.1-1.6v-2l-.1-.8v-.3l-.5-.2-.9-.4-.2-.2-7.7-8.3-1.2-1.2.2-11.1.1-.7v-.4l.1-5l1.3-1.4l1.3-1.9.4-2-1.5-2.3-.6-1.7.2-1.9l1.4-3.8-1.5-.2-1.3-.3-.7-.4-.4-.1-.2-.1-1.2-.8-.5-.3-2.2-.7-1.6-.5h-.1l-.1-.1h-.2l-.3-.1-2-.7h-.3l-1.2-.4-1-.3-.3-.1-.2-.1h-.1l-2.4-.8-1.4-.3-1.4.2-2.3.2-.7.7-.8.9-4,2.9-.5-.1-1.1-.3-1.5-1.2-1.1-2.2-.8-1.5.4-1.2.9-1.8-.1-1.2-11.3-7.6.1-3.4-4.7-7.7-2.5-3.9-.7-5.3.7-3-.4-2.8-.7-1.6-2.8-2.8-3.2-6.4-.7-1.8-.1-1.5-.1-1.2-.09216-1.19804L158.3,560.8v-.1l-.2-2.1-5.5-14.6-.2-.5-1-1.3-.1-.1-1.7-2v-.2l-.4-.7-4.1-2.7-1.1-.4-1.3-.2h-2.6l-.9-.2-.1-.1h-.1l-.4-.4-.4-1-.2-1.6-.1-.3-.3-.6-.1-.4.2-.1.5-.4.2-.1-.1-1.2-.3-1.1-.4-.9-.5-.8-1.9-1.3-2-1.5-1.4-.3-4.7-1.1-2.5-.6-.2-.2-.4-.2-.4-.3-.3-1.1-.3-.3-2.5-1.9-.3-.3-.1-.2-1.7-2.7v-2.6l-.3-1.3-.5-1-.9-.5-.3.1-3.8-1.6-.5-.4-.3-.4-2.8-2.1-.4-.2-.2-.3v-5.7l-.1-.4-.3-1.7v-.1l-1-1.6-7.6-7.7-1.8-1.1h-.3l-4.1-3.2-3.6-2.8-.3-.3-.5-.3-.5-.1-.8-.4-.3-.1-1-.4-1-.6-.6-.2-.5.1-2.1-.7-4.9-1.6-.4-.2-1-.3h-.2l-.5-.5-1-.3h-1.6l-.8.2-9.8-1.1-.2-.2-1-.9-.5-.1-2-.3-1.7-.7-.5-.1-2,.4-.3.2-.3.5-.8-.1-1.4-.6-1.6-.2-.5-.2-.2-.4-.2-.5-.2-.6-1-.6-.6-.9-1.2-3.3-.1-1.2v-.3l.8-.9.1-.1.3-.5.3-.3.2-.5.3-1.2.2-.5.2-.2.3-.5.6-.6.8-.9l2.4-2.5.4-.6.2-.5.5-.6.2-.2l1.3-.4.3-.1.4-.1.6-.3.8-.7.3-.6.2-.2v-.2l.1-1-.2-.4h-.1v-.3l-.2-2.1-.1-.9.2-.3.6-.4.6-.2.4-.3.1-.8-.9-.4-.5-.3-.4-.7-.5-.4-.4-.6v-1.3l.4-1l.2-.8-.1-.2-.6-.4-.1-.2v-.2l.1-.1.2-.4.1-.3v-.8l.2-.9l1-.7.9-.1.5-.5-.1-.2.4-.3.4-.2l2.1-1.5l6.3,1.4.6-.2.2-.1.4.1l1.4-.3l1.6-.4l1.5-.3h.2l.8-.1.4-.1h.2l.4-.2l1.3-.3h.8l.9.8.9.4l1.2-.3.8-.4.9-.4l1.2.2l1.9,1.6l1.2,2.1l1.5,1.7l2.8.3.6-.1h.2l.7.1h.3l.4-.4.7-.6.2-.2l1.6-1.5.3-.1l1.6-.7l1.5-.2h3.4l1.1-.3.3-.2l1-.1l1.9-1.4l2.8-2.6.1-.1l1.2-1.1l1.7-1.6.5-.5.9-1.4.1-.3v-3l.1-1.1v-1.5l.3-8l.3-9.1v-.5l-.1-.8-.2-2.6-1.7-22.5-.2-2.2-.2-2.1-.3-2.7-.2-3.3l2.1-8.3.2-.8.3-1l.1-.4.5-2.2l4.1-9l.8-4.2.1-.8.5-2.5.6-.6l3.2-3.1.4-.4l1.4-1.5l1.1-4.9.3-1.9.2-.6-.4-2.6-.2-.9-.1-.8-.6-2.6-1-5.3v-.1l-.8-3.8-.2-.7-.3-1.7-.2-1l1-1.1.7-.9l1.4-1.7.9-1.1.7-1.2l4.6-8.2.3-.2l1.1-.7l2.4-1.7l1.1-.7l4.5-3.1l4.8,3.3l2.2,2l1.3,1.2l1.5,1.3.4.3.4.5.2.1.9.8.1.1.7.6.4-.1l3.2-.5l7-8.1.1-1.2v-1l.1-.1v-.4l-.3-.2-.3-.5v-.3l-.3-.3-1.9-1.7l2.9-9l.2-.5l1.3-4l.1-.8v-.6l-1.1-1.1-.6-.5-.5-.5-.4-1.2.2-1.5.5-1.2.7-1.5.4-.7.6-1.2.2-.2.4-.9.1-.4l2.4-5.5l1.9-4.3.1-.2.4-2.5v-.5l-.1-.5-.1-.4-.1-.3-.7-1.2-.7-1.5-.4-4.3-.5-1-.1-.4.4-.6.5-.8l1.1-2.7h.1l1.1-1.8.8-1l1.1-.8.5-.2l1.6-.7l1.4-.4.6-.1l1.8-.8l1.4-1.1.4-.7.3-.5.1-.1.7-2.1.3-.7l3.8-7.2.9-1.7l1.3-2.4l2.9-4.8.9-1.5l12.2-20.2l2.4-.6.8-1.4.1-2.5v-.1l.7-.1h.1l.4-.1.2-.1h.2l14.4-2.8h.5l.5-.1l1.2-.1.7-.1l1.5.4.3-.1l1.8-.5.5.4.8.7.9.7.2.1l1.8-1.3l1-10.4-1.4-2.7.4-1.7.6-1.2l1-1.1-.4-1.7-.3-1l5.3-20l.3-.9.8-1.1l5.2-7.3.9-1v-.1l.7-.9v-.1l.5-.6.9-1.3.7-1.7.1-1.3-.2-1.2.1-1.4.7-1.8l2-4.8.2-.5.3-.7.1-.1.2-.4.1-.1.4-1l.3-.4.4-.5.3-.3v-.1l.4-.6-.2-1-.6-2-.5-1.8-.1-.1-1-3.9.7-1.3L260,77l.3-.5.5-1.7.1-.4.1-.1h-.1l-.9.1.5-1.7.2-1v-.1l.3-.4.1-.2.2-.3.3-.1.4-.2.8-.2.4.2.4-.1.1-.1.5-.2.2-.1h.1v-.1l.1-.1h.3l.1.1.3-.1.1-.3v-.2l.1-.2v-.1h.9l.4.1.5.1h.1l.3.1h.1l.5.2.6.1.3.1h.5l.2-.2.6-.3.5-.2h.4l.6-.2.3-.3.8-.2h.3l.8.2h.5l.3-.1h.2l.3.1h.4l.4.1h.5l.5.1.5-.1.1.3.2.1h.3l.1-.1h.3l.3-.3.1-.2h.6l.2-.1h.2l.2.1.1.1.2.1.3.2.5-.1.5.1.4.3.5.3.4.1h.3l.1.1h.3l.3.1.3.3.4.1h.4l.3-.1h.1l.3.1h.1l.4.2.3.4.4.3.1.2v.2l.2.4.2.2.4.1.3.3.4.2.6-.1.4-.2.5-.2v-.1l.3-.3.4-.2.2.1h.1l.5.2h.5l.1-.1h.1l.2-.2h.6l.4-.1.2-.1.1-.1.1-.3v-.4h.1l.2-.2h.1v-.1l.1-.2v-.1l-.1-.4v-.2l.1-.3v-.4l.1-.5-.3-.3v-.4l.1-.7.4-.8.3-.3v-.4l.4-.6.1-.1.1-.3v-.2l.2-.4.1-.4.3-.3v-.1h.5l.2-.1v-.1h.1l.3-.3.3-.1h.1l.4-.1.4.2h.5l.3-.1.6-.3.8-.8.2-.1.1-.1.4-.2h.5l.3.2.4.3.5.1h.4l.3-.3.5-.1h.5l.5-.1.2-.1.2-.2.6-.1.5.1.3.5.1.4.3.2.5.2.3.4.2.3.5.1v-.3l.1-.1.2.2h.1l.3-.2h.1l.2.1.2-.3.2-.1.1.1.2-.3.1-.2.2-.1l1.3-2l.2-.6.1-.1.5-.1.1-.1.8-.3h.2l.6.1.1.3.1.1v.1h.8l.9.1.6-.2h.3l.2-.1l1.1.7.9.1h.1l1.5.9.1-.1.3-.2.2-.1.6-.1.2-.1.3-.8l1.1-.6.5-.1.3-.1l1.9-.6h.2l.7-.2h.2l.8-.6.1-1.1.1-.2.3-.2.6-1.1.5-1.1.2-1l.6-.6.3-.9.5-1.3l1.1-1.2h.7l1.2.8.6-1.5-.5-1.6-.1-1.2.5-2.3l1.4-2.1l1.7-2.3l1-.5.7.4.9.4l1.6-.6l1.3-1l.3-.4.7-.8.2.2.1.4h.2l.2-.2.1.1v.3h.4l.7.1.2.8v1l.8-.4.1.6.2.4v.8l.1.4.3-.1.3.2v.3h.1l.3.1h.3l.3.3v.7l-.2.4v.4l.2.1.3.2.8.8.1.2.4.2.4.1h.7l.3.1.5.1h.6l.1.1h.1l.2.3.2.1h.2l.3.3.2.3.6.4.4.1h.1l.3.3v.1l.1.2.3.3h.4l.1-.2v-.1l.1-.1h.1l.1-.1h.6l.4-.1.3-.1.4.2.2-.2v-.1l.1-.2v-.2l.1-.1.5.1h.2l.4.1.3-.1v.1h.2l.4.1h.1l.4-.1.5.2.4.3.5.2.3.3.3.2v.4l.2,1v.3l.3.3-.2.4-.1.4v.5l.4.2.4.1.5.1.3.3.1.5.9.6.2.4.3.3-.2.4.1.5.1.6.3.3.3.5.2.4.4.1.3.4-.1.6.2.3.4-.1.4.2v.5l.3.4v.1l.1.3.4.1.3.3.4-.1.5.1.4-.1.2.3v.4l.2.3.4.1h.8v.4l.2.4.2.6.2.8h.1l.2.1h.1l.3.3v.4l.3.3.5.1.5-.2h.5l.3-.3.4-.1.4.3.5.1h.4l.3.2.3.3.2-.2.1-.2h.1l.9-.6.4-.1h.3l.2-.1.1-.1h.5l.3-.2.1-.1h.1l.1-.2h.4l.5-.2.5-.1.4-.1.4.1h.1l.3.3h.1l.2-.1h.1l.6-.3h.5l.5-.1.4-.2.5-.1v-.1l.2-.2h.1l.2-.1h.3l.3-.3.4-.2.5-.1.2-.1.3-.1.4.1.3.2h.5l.2.1.6-.1.4-.1.4-.2h1.1l.4-.1.4.1.3.1h.5l.3-.2.1-.1.5-.2.4-.2v-.4h.5l.4-.2.3-.1.3-.3h.1l.4-.3.5.1h.6l.2-.1.4-.1h.4l.8-.2h.5l.5-.3.4-.3.1-.1v-.1l.2-.1.2-.2v-.1l.3-.3v-.1l.2-.2.1-.2.3.1h.4l.2-.2v-.1h.1l.4-.2h.4l.3-.1.2-.2.3-.6.8-.8.1-.4.2-.3.1-.5.1-.1h.1l.4-.2v-.2l.1-.2v-.5l-.1-.3-.1-.5.3-.3v-.1l.3-.3h.1l.1-.2h.1v-.1h.2l.1-.1.3.1.5.1.4-.3h.8l.4.2h.4l.3-.2h.1l.3.2h.7l.4.2.3.5.3.3.6.2.5-.1h.1l1.4-.3h.7l.5.1.6.2.4.1.4.2.5.5.2.3.3.4.1.4.2.3v.5l.3.3h.4l.3.1v.3l.1.3v.2l-.1.3-.1.2-.3.3v1.3l-.2.5-.3.4-.2.3-.1.2-.1.1-.3.1-.2.1.6.9v.5l.1.1.1.5v.4l.1.3.1.4v.2l.1.2.3.4.2.4v.2l.3.6.4.3v.1l.1.3.1.5h.3l.4-.1.4-.2v-.1l.5-.2.4-.2h.5l.1-.4h.5v-.5l-.2-.3v-.8h.6l.4-.1.4-.2v-.1l.2-.4-.3-.2h-.1l.1-.1.2-.3-.3-.1h-.1l-.1-.3v-.9h1l-.2-.3v-.1l-.2-.4v-.4l.4-.3.3-.2.3-.3.8.4.3.3.4.3.4.1-.1-.4-.3-.3v-.4l.2-.4v-.5l-.2-.5.2-.3.4.1.2.1h.4l.8-.2.4.2.5.3h.9l.1.2v.2l.2.2.2.1h.1v-.1l.5-.2.4-.2v1l.2.2.2-.1.2-.2.4-.2v.1l-.1.4.2.3.1.3h.4l.4-.2.1-.1h.1v-.1l.3-.3.1-.4.1-.7.1-.6.1-.4-.1-.5-.1-.3-.2-.5v-.6l-.1-.5-.4-.5-.2-.3-.3-.2v-.4l.3-.4.2-.4.3-.5-.2-.5v-.5l.1-.3.2-.2.1-.2.2-.1.2-.7v-.4l.1-.4.1.1.4.3.1-.1v-.1l.2-.1v-.1l.1.1.4.1.4.2.4.1h.8l.3.1.5-.1h.7l.3.1.4.2.3.2.9.9.3.2.4.4.3.1.2,1l.2.7.3.4.2.3.3.1.5.2.4.2.4-.1h.2l.4.2h.4l.3.3.3.4.4.5.1.4.7.7h.3l.4.2.4.1h.8l1,.2.5.2.2.4.3.4.2.3.1.2.4.5.3.3.1.4.3.1h.2l.4.3.2.4v.1l.7.4h.2l.4-.3.6.3.3.3.6.2.3.4.3.1.4.1.4.6.6.6.3.4.3.3.7.5v.1l.8.4.5.2.4.2h.3l.3-.1.3-.2.3-.3.3-.2.4-.2v-.1l.1-.3.1-.2.3-.2.1-.2.2.6.1-.1l1.5-.4l1.1-1.1.9-1l.7-.9l1.3-.4.8.2l3.1-.5l2,.5l3,.8l2.8,1.6l3.7,1.8l3.3,2.1.1.1l1.2.5l2.3,1.1l6.2,3.9l5,3.5l2.6,2l4.1,3.3l5.9,4.7l4.2,3.7l3.9,3.5l2.8,2.3l3.7,3.4l1.3,1.3l4.2,4.3l1.4,1.3l1.5,1.3l2.1,2.1l1.1,1.5l1.3,1.7l1.4,2l2.2,2l1.8,1.7l2.4,2.1l1.3,1.1l1.2,1.1l7.2,7.2l2,2.4l2.4,2.2l2.7,2.6l2.5,2.5l3,3.4l5.6,5.4.3.4l2.3,2.7.5.6l2.6,2.9.8,1.5.7,1.5.7.9.7,1.3.8,1.7.5,1l.5.8.4.4.8,1l.8.9.3.4.4.4v.1l.1.5l1,1.2.5.4.9.7l1.2,1.6l2.4,3l.8,1.2.6.8.5.4.4.6.5.5.5.8l1.8,2.9l2.1,1.3l2.2,1.1l2.4,2.5.6.5-2.1,2.5-1.6,2-.8,2.4-1.1,3.1-1,.9-2.2,1.9-5.2,7.8-1.9,2.2-.6.7h-.1l-4.1,7.1-2.1,3.1-2,3-2.6,3.8-1.9,1.5-1.3.9-.3.3-3.7,2-1.8,5.9-.1.4-.5,1.9-1.3,4.3-.5,1.9l2,7.9.9,6.1.2,1.5-.3,5.5-.2,4.3-.1,1.2-.1,3-.6,1.4l1.1,1.4.2.1.1.1l1.5.6l2.7.7l2.2.5l1.3.2l2.9.4h1.5l.7-.2l1.4-.8l2-1.1l1.8-.9.9-.5h2.8l7.8-.7l3.6-.5l6.9-2.2l1.7-.5l5.7-1.5.8-.3l1-.1.9-.2h.1l6.4,1.2h.1l.7,1.2.6,2.2l1.4,1.5v.1l.9.4l1.7.2.3.1h.4l.7.1h.2l1.4.1h.3l1.8-.7l1.2-.5h.3l-.4.5v.2l-1.1,1.9-.2.3-.9.9-2.4,2.5-.1.1-3.2,3.9-.1.1-1.6,2.1-.9,1.2-2.4,3.5-2.9,4.4-.7,1.1l1,3.3.1.1.6,1.1.9,1.5.1.1.7,1.1l1.5,1.3.3.4l2.1,2.1.6,2l.3,1.6.1,1l.2,1.9v.2l.1.2v.1l.6,1.7.2.7l1.8,5.1.8,1.2l1,1l.6.8l2,1.5l1.8.9l1.2.7h.1l.4.2.1.2.2.2.8.9.8,1l.8,1.9.6,1.5.4,2l.6,1.5.7,1.2.8.9.5.6l1.5,1l2.3.3h2l.9.4.5.3.7,1l.6.8v.2l.8,3.7.5,3l.8,4.1.4,1.2.5,1.2.5.6l1.4.4l1.4.6.2.3.1-.1.3.5.6.5v.1l.5.6l1.1,1.1v.1l.7.7.8,1.5l1.2,2l.5.9v.2l-.1.2v.2l-.1.9.1,1.6v.1l.9,1l3.1,1.9l3.2,1.9.6.4l1.4.6.8-.3h.7l1.2-.5.3-.1l1.6,1.5.2.1.4.4l5.2,4.8l6.2,5.7.5.5l7,6.4l2.1,1.9l3.3,1.1l3.1,1l4.2,1.4.1.1l28.1,9.4.7.2l1.4.5.4.1.3.1l49,16.7l26.1,8.7l9.6,3.3.4.1l13.2,4.5l5.4,1.9l2.7.9l6.1,2.1l11.8,4l2.7.9l3,1.1l2.9,1l6.4,2.2l1.1.4l2.2-.1h2.3l26.2-.1h28.4v.2h-.1l-10.2,10.6-.1.5-9.4,9.5-6.1,6.2-9.1,9.4-2.9,3-28.1,29-21.7,22.4-1,1.1-59.9,61.8-26.7,27.5-6.8,7.1h-1.1l-.9.9-11.1-.7-10.5-.7-4.9-.3-2.8-.2-8.6-.5-2.1-.1-4.2-.3-9.3-.6-2.3-.1h-.9l-.5.1-4.2,1.1-.9.4-2.2.7-1.9.5-1.3.2-.4.1h-.2l-1.5,2.4-15.7,4.9-1.7-1.9-.2-.5h-.2l-.9.4-4.5,1.9-1.6.8-.9.3-1,.5-2.3,1-7.7,3.7-2.2,1.3-4.6,3.8-.4.2-5.4,4.6-1,1.2-.7,1.4-.7,2.2-.8,3.5-.2.4-.6,1.1-2.6,2.7-1.3.9-1.5.5-.5.2-1.1.3-1.9.5-.3.1-1.7.3-.8.1-4.3.4-2,.3-3.6.8.2.1l1.1,1.8-.6.2h-.1l-.5.1-.4.2-.3.1h-.7l-.9.2h-2l-.5-.1-.6.1h-.5l-1.4.2-1.6.2-2.9.4-2.6.2-3.7.2h-.1l-4.3.2h-6.5l-.4.2-.7.4v.1l-.3.2-.8.8-.1.2-.4.4-.4.6-1,1.1-.6.7-.6.5-1.2-.1-.3.9h-.1v.1l-.2-.1h-.2l-1.2,1.4v1.1l.1.7-.3.7-.7.6-.3.2-.3.6-.3.1h-.2v.1h-.1l-.3.7-.1.1-.4.1-.3-.2h-.1l-.2.1-.1.1h-.1l-.1.2h-.1l-.3.3h-.1l-.3.1h-.2l-.4.2-.1.1-.1.3-.3.3h-.5l-.2-.3-.3.3v.2h-.1l-.1.1-.2-.1-.3.2-.2-.1-.1-.2.1-.2h-.1v-.2h-.6l-.2-.1-.3.1-.2-.1-.2-.2-.1-.5v-.7l-.4.2h-.1l-.2-.2-.2.4-.4.1-1-.3h-.1v-.5h-.1l-.3.1-.2-.2-.2.1-.3-.1-.1-.2v-.1l-.2.3h-.4l-.2-.3-.4.5-1.3.3-.3.5h-.2l-.2.1h-.1l-.2.4-.1.1-.6-.3h-.6l-1.4-1-.1-.1h-.1l-.6.6h-.6l-.4-.1-.5.3-.3.1-.4-.2-.8.2-.1.1-.4-.2-.2-.3-.4-.4h-.3l-.9.4-.4.2-.3.7h-.1l-.1.1-.2.1-.2.2-.3-.1.1-.4v-.2l-.4.1-.6.4-.3-.1-.1.1h-.1l-.1.2v.1h-.2l-.2-.2-.2.1h-.2l-.4-.2h-.1l-.7.2h-.4l-.1.1h-.1l-.1.3-.3.1h-.3l-.2-.2-.2.1-.3-.1-.5-.3-.7-.5h-.2l-.7.6h-.6l-.2-.1-.2-.2h-.1l-.1-.1v-.1h-.3l-.4.6-.5.2-.3.2-.3.3h-.2l-.2-.1-.2-.2h-.3l-.3-.2-1.4-.1h-.3l-.2-.1-.1-.1h-.1l-.2-.1h-.1l-.1-.1h-1.2l-.8-.2-.2.1-.2.2-.1.2-.7-.2h-.1l-.3.2-.4.2v.5l-.1.1-.4-.1h-.1l-.4-.1-.3.1-.7-.2-.1-.1-.3-.4-.9-.4-.8-.5-.2-.1.1-.1.1-.2-.1-.1h-.5l-.2-.5v-.1l-.2-.2-.4-.1v.1h-.1l-.3.1-.1-.3-.3-.3-.4-1.1h-.1l-.1-.1-1-.5-.4-.8-.3-.4-.2-.3-.3-.2-.5-.5-.2-.3-.4-.4-.2-.1-.3.1-.2-.4-.8-.7-.5-.8-.5-.4-.7-.1-.3-.4-.3-.5-.4-.4-1.1-.6-1-.2-1-.4-.4-.1h-.1l-.1-.1v-.1l-.3-.9-1-1.3-.1-.4.2-.4v-.1l-.1-.3-.6-.5-.2-.1-.8-.3-.1-.1-.2-.4-.2-.2-.2-.5h-.5l-.2-.1h-.2l-1-.4-.7-.4-.4-.3-.5-.3-.1-.1-.4-.5-.2.1h-.3v-.1l-1.3.7-2.1,1.2-1.2.6-.7.4-.7.3-9.3,3.6-.9.4-3.8,1.5-1,.4-1.4.7-.3.3-.2.3-.3.7-12.5,4.6-11,5.7-1.1.5-.7.3-.6.3-1.6.7-2.9,1.3-.3.1-.5.3-.4.2-2.6,5.8-.6,1.5-.5,1.1-1.2,2.8-.2.3-1.1,1.1-1.1,1-1.8,1.7-7.4,7-.2.7-.1.2-1.8,4.8h-.6l-1.9-.1v-.1l-.3-.2-.7-.5-.1-1.6-.1-.1-2.1-.5-.3-.1-.5-.2-1.3.2h-.4l-4.2-.4-1.3-.2-.2-1.8-.3.2-1,.7-.6.4-.2.2-1.6.1h-.2l-.9.1-3.2-.4-.1-.1-.4-.2-3.6-1.7-.9-.5-.7-.3v-.1l-.7-.3-.4-.2h-.4l-1.9.3h-.1l-.4.1h-.3l-1.4.2h-.5l-.4.1-2.1.2h-.3l-1.5.2-1.1.1h-.2l-.1-.1-1-.2-5-1.5-2.1-.6-.8-.2-.3-.1-.5-.2-1.1-.3-6.6-2.1-1.6-.4h-.1l-.8-.2-.9-.2-.4-.1-2.5-.6h-.2l-4,1.6h-.7l-6.3-.5h-.6l-1.5-.1h-1l-9-.1h-.7l-4-2.5-.9-2-.4-.8-.5-.4-.6-.5-.2-.2-.9-.7-.4-.3-.1-.1-2.8-1.8-17.9-11.6-5.9-3.9-.4-.2-1.3-.8-.8-.6-13.9-9-9.1-5.6-.5-.7-.1-.2-1.3-1.9h-.1l-.1-.1-.7-.5-.4-.4-1.4-1-.4-.3-.5-.3-.1-.1-.5-.2-4.7-1.8-.2-.1-3.7-1.4h-10.5l-2.4-.4Z" fill="#fff" stroke="#000" stroke-width="5" stroke-linecap="round" stroke-linejoin="round"/></g></g></svg>
