<svg width="90" height="128" viewBox="0 0 90 128" fill="none" xmlns="http://www.w3.org/2000/svg">
<g clip-path="url(#clip0_34_66)">
<path d="M41.7857 67.2H59.4643C76.329 67.2 90 80.8102 90 97.6C90 114.39 76.329 128 59.4643 128H6.42857C2.87817 128 5.17722e-08 125.135 0 121.6V6.4C8.28354e-07 2.86538 2.87817 1.28852e-07 6.42857 0H41.7857V67.2Z" fill="#151515"/>
<path d="M48.2142 3.78182C48.2142 1.69318 49.915 0 52.0129 0H59.4642C76.3289 0 89.9999 13.6106 89.9999 30.4C89.9999 47.1894 76.3289 60.8 59.4642 60.8H52.0129C49.915 60.8 48.2142 59.1068 48.2142 57.0182V3.78182Z" fill="#2563EB"/>
</g>
<defs>
<clipPath id="clip0_34_66">
<rect width="90" height="128" fill="white"/>
</clipPath>
</defs>
</svg>
