<svg width="327" height="70" viewBox="0 0 327 70" fill="none" xmlns="http://www.w3.org/2000/svg">
<g clip-path="url(#clip0_34_90)">
<path d="M23.2143 36.75H33.0357C42.405 36.75 50 44.1931 50 53.375C50 62.5569 42.405 70 33.0357 70H3.57143C1.59898 70 2.87624e-08 68.4331 0 66.5V3.5C4.60196e-07 1.567 1.59898 7.04659e-08 3.57143 0H23.2143V36.75Z" fill="#151515"/>
<path d="M26.7858 2.06818C26.7858 0.925956 27.7306 0 28.8962 0H33.0358C42.4051 0 50.0001 7.44327 50.0001 16.625C50.0001 25.8067 42.4051 33.25 33.0358 33.25H28.8962C27.7306 33.25 26.7858 32.324 26.7858 31.1818V2.06818Z" fill="#2563EB"/>
</g>
<path d="M74.0341 52V17.0909H88.0114C90.5795 17.0909 92.7216 17.4716 94.4375 18.233C96.1534 18.9943 97.4432 20.0511 98.3068 21.4034C99.1705 22.7443 99.6023 24.2898 99.6023 26.0398C99.6023 27.4034 99.3295 28.6023 98.7841 29.6364C98.2386 30.6591 97.4886 31.5 96.5341 32.1591C95.5909 32.8068 94.5114 33.267 93.2955 33.5398V33.8807C94.625 33.9375 95.8693 34.3125 97.0284 35.0057C98.1989 35.6989 99.1477 36.6705 99.875 37.9205C100.602 39.1591 100.966 40.6364 100.966 42.3523C100.966 44.2045 100.506 45.858 99.5852 47.3125C98.6761 48.7557 97.3295 49.8977 95.5455 50.7386C93.7614 51.5795 91.5625 52 88.9489 52H74.0341ZM81.4148 45.9659H87.4318C89.4886 45.9659 90.9886 45.5739 91.9318 44.7898C92.875 43.9943 93.3466 42.9375 93.3466 41.6193C93.3466 40.6534 93.1136 39.8011 92.6477 39.0625C92.1818 38.3239 91.517 37.7443 90.6534 37.3239C89.8011 36.9034 88.7841 36.6932 87.6023 36.6932H81.4148V45.9659ZM81.4148 31.6989H86.8864C87.8977 31.6989 88.7955 31.5227 89.5795 31.1705C90.375 30.8068 91 30.2955 91.4545 29.6364C91.9205 28.9773 92.1534 28.1875 92.1534 27.267C92.1534 26.0057 91.7045 24.9886 90.8068 24.2159C89.9205 23.4432 88.6591 23.0568 87.0227 23.0568H81.4148V31.6989ZM113.098 52.4943C111.428 52.4943 109.939 52.2045 108.632 51.625C107.325 51.0341 106.291 50.1648 105.53 49.017C104.78 47.858 104.405 46.4148 104.405 44.6875C104.405 43.233 104.672 42.0114 105.206 41.0227C105.74 40.0341 106.467 39.2386 107.388 38.6364C108.308 38.0341 109.354 37.5795 110.524 37.2727C111.706 36.9659 112.945 36.75 114.24 36.625C115.763 36.4659 116.99 36.3182 117.922 36.1818C118.854 36.0341 119.53 35.8182 119.95 35.5341C120.371 35.25 120.581 34.8295 120.581 34.2727V34.1705C120.581 33.0909 120.24 32.2557 119.558 31.6648C118.888 31.0739 117.933 30.7784 116.695 30.7784C115.388 30.7784 114.348 31.0682 113.575 31.6477C112.803 32.2159 112.291 32.9318 112.041 33.7955L105.325 33.25C105.666 31.6591 106.337 30.2841 107.337 29.125C108.337 27.9545 109.626 27.0568 111.206 26.4318C112.797 25.7955 114.638 25.4773 116.729 25.4773C118.183 25.4773 119.575 25.6477 120.905 25.9886C122.246 26.3295 123.433 26.858 124.467 27.5739C125.513 28.2898 126.337 29.2102 126.939 30.3352C127.541 31.4489 127.842 32.7841 127.842 34.3409V52H120.956V48.3693H120.751C120.331 49.1875 119.768 49.9091 119.064 50.5341C118.359 51.1477 117.513 51.6307 116.524 51.983C115.536 52.3239 114.393 52.4943 113.098 52.4943ZM115.178 47.483C116.246 47.483 117.189 47.2727 118.007 46.8523C118.825 46.4205 119.467 45.8409 119.933 45.1136C120.399 44.3864 120.632 43.5625 120.632 42.642V39.8636C120.405 40.0114 120.092 40.1477 119.695 40.2727C119.308 40.3864 118.871 40.4943 118.382 40.5966C117.893 40.6875 117.405 40.7727 116.916 40.8523C116.428 40.9205 115.984 40.983 115.587 41.0398C114.734 41.1648 113.99 41.3636 113.354 41.6364C112.717 41.9091 112.223 42.2784 111.871 42.7443C111.518 43.1989 111.342 43.767 111.342 44.4489C111.342 45.4375 111.7 46.1932 112.416 46.7159C113.143 47.2273 114.064 47.483 115.178 47.483ZM140.737 36.8636V52H133.476V17.0909H140.533V30.4375H140.839C141.43 28.892 142.385 27.6818 143.703 26.8068C145.021 25.9205 146.675 25.4773 148.663 25.4773C150.482 25.4773 152.067 25.875 153.419 26.6705C154.783 27.4545 155.839 28.5852 156.589 30.0625C157.351 31.5284 157.726 33.2841 157.714 35.3295V52H150.453V36.625C150.464 35.0114 150.055 33.7557 149.226 32.858C148.408 31.9602 147.26 31.5114 145.783 31.5114C144.794 31.5114 143.919 31.7216 143.158 32.142C142.408 32.5625 141.817 33.1761 141.385 33.983C140.964 34.7784 140.749 35.7386 140.737 36.8636ZM163.429 52V25.8182H170.69V52H163.429ZM167.077 22.4432C165.997 22.4432 165.071 22.0852 164.298 21.3693C163.537 20.642 163.156 19.7727 163.156 18.7614C163.156 17.7614 163.537 16.9034 164.298 16.1875C165.071 15.4602 165.997 15.0966 167.077 15.0966C168.156 15.0966 169.077 15.4602 169.838 16.1875C170.611 16.9034 170.997 17.7614 170.997 18.7614C170.997 19.7727 170.611 20.642 169.838 21.3693C169.077 22.0852 168.156 22.4432 167.077 22.4432ZM176.507 52V25.8182H183.547V30.3864H183.82C184.297 28.7614 185.098 27.5341 186.223 26.7045C187.348 25.8636 188.643 25.4432 190.109 25.4432C190.473 25.4432 190.865 25.4659 191.286 25.5114C191.706 25.5568 192.075 25.6193 192.393 25.6989V32.142C192.053 32.0398 191.581 31.9489 190.979 31.8693C190.376 31.7898 189.825 31.75 189.325 31.75C188.257 31.75 187.303 31.983 186.462 32.4489C185.632 32.9034 184.973 33.5398 184.484 34.358C184.007 35.1761 183.768 36.1193 183.768 37.1875V52H176.507ZM196.284 52V17.0909H203.665V45.9148H218.631V52H196.284ZM235.314 52.5114C232.621 52.5114 230.303 51.9659 228.359 50.875C226.428 49.7727 224.939 48.2159 223.893 46.2045C222.848 44.1818 222.325 41.7898 222.325 39.0284C222.325 36.3352 222.848 33.9716 223.893 31.9375C224.939 29.9034 226.411 28.3182 228.308 27.1818C230.217 26.0455 232.456 25.4773 235.024 25.4773C236.751 25.4773 238.359 25.7557 239.848 26.3125C241.348 26.858 242.655 27.6818 243.768 28.7841C244.893 29.8864 245.768 31.2727 246.393 32.9432C247.018 34.6023 247.331 36.5455 247.331 38.7727V40.767H225.223V36.267H240.496C240.496 35.2216 240.268 34.2955 239.814 33.4886C239.359 32.6818 238.729 32.0511 237.922 31.5966C237.126 31.1307 236.2 30.8977 235.143 30.8977C234.041 30.8977 233.064 31.1534 232.212 31.6648C231.371 32.1648 230.712 32.8409 230.234 33.6932C229.757 34.5341 229.513 35.4716 229.501 36.5057V40.7841C229.501 42.0795 229.74 43.1989 230.217 44.142C230.706 45.0852 231.393 45.8125 232.28 46.3239C233.166 46.8352 234.217 47.0909 235.433 47.0909C236.24 47.0909 236.979 46.9773 237.649 46.75C238.32 46.5227 238.893 46.1818 239.371 45.7273C239.848 45.2727 240.212 44.7159 240.462 44.0568L247.178 44.5C246.837 46.1136 246.138 47.5227 245.081 48.7273C244.036 49.9205 242.683 50.8523 241.024 51.5227C239.376 52.1818 237.473 52.5114 235.314 52.5114ZM259.536 52.4943C257.865 52.4943 256.376 52.2045 255.07 51.625C253.763 51.0341 252.729 50.1648 251.967 49.017C251.217 47.858 250.842 46.4148 250.842 44.6875C250.842 43.233 251.109 42.0114 251.643 41.0227C252.178 40.0341 252.905 39.2386 253.825 38.6364C254.746 38.0341 255.791 37.5795 256.962 37.2727C258.143 36.9659 259.382 36.75 260.678 36.625C262.2 36.4659 263.428 36.3182 264.359 36.1818C265.291 36.0341 265.967 35.8182 266.388 35.5341C266.808 35.25 267.018 34.8295 267.018 34.2727V34.1705C267.018 33.0909 266.678 32.2557 265.996 31.6648C265.325 31.0739 264.371 30.7784 263.132 30.7784C261.825 30.7784 260.786 31.0682 260.013 31.6477C259.24 32.2159 258.729 32.9318 258.479 33.7955L251.763 33.25C252.104 31.6591 252.774 30.2841 253.774 29.125C254.774 27.9545 256.064 27.0568 257.643 26.4318C259.234 25.7955 261.075 25.4773 263.166 25.4773C264.621 25.4773 266.013 25.6477 267.342 25.9886C268.683 26.3295 269.871 26.858 270.905 27.5739C271.95 28.2898 272.774 29.2102 273.376 30.3352C273.979 31.4489 274.28 32.7841 274.28 34.3409V52H267.393V48.3693H267.189C266.768 49.1875 266.206 49.9091 265.501 50.5341C264.797 51.1477 263.95 51.6307 262.962 51.983C261.973 52.3239 260.831 52.4943 259.536 52.4943ZM261.615 47.483C262.683 47.483 263.626 47.2727 264.445 46.8523C265.263 46.4205 265.905 45.8409 266.371 45.1136C266.837 44.3864 267.07 43.5625 267.07 42.642V39.8636C266.842 40.0114 266.53 40.1477 266.132 40.2727C265.746 40.3864 265.308 40.4943 264.82 40.5966C264.331 40.6875 263.842 40.7727 263.354 40.8523C262.865 40.9205 262.422 40.983 262.024 41.0398C261.172 41.1648 260.428 41.3636 259.791 41.6364C259.155 41.9091 258.661 42.2784 258.308 42.7443C257.956 43.1989 257.78 43.767 257.78 44.4489C257.78 45.4375 258.138 46.1932 258.854 46.7159C259.581 47.2273 260.501 47.483 261.615 47.483ZM279.913 52V25.8182H286.953V30.3864H287.226C287.703 28.7614 288.504 27.5341 289.629 26.7045C290.754 25.8636 292.05 25.4432 293.516 25.4432C293.879 25.4432 294.271 25.4659 294.692 25.5114C295.112 25.5568 295.482 25.6193 295.8 25.6989V32.142C295.459 32.0398 294.987 31.9489 294.385 31.8693C293.783 31.7898 293.232 31.75 292.732 31.75C291.663 31.75 290.709 31.983 289.868 32.4489C289.038 32.9034 288.379 33.5398 287.891 34.358C287.413 35.1761 287.175 36.1193 287.175 37.1875V52H279.913ZM306.815 36.8636V52H299.554V25.8182H306.474V30.4375H306.781C307.361 28.9148 308.332 27.7102 309.696 26.8239C311.06 25.9261 312.713 25.4773 314.656 25.4773C316.474 25.4773 318.06 25.875 319.412 26.6705C320.764 27.4659 321.815 28.6023 322.565 30.0795C323.315 31.5455 323.69 33.2955 323.69 35.3295V52H316.429V36.625C316.44 35.0227 316.031 33.7727 315.202 32.875C314.372 31.9659 313.23 31.5114 311.776 31.5114C310.798 31.5114 309.935 31.7216 309.185 32.142C308.446 32.5625 307.866 33.1761 307.446 33.983C307.037 34.7784 306.827 35.7386 306.815 36.8636Z" fill="#151515"/>
<defs>
<clipPath id="clip0_34_90">
<rect width="50" height="70" fill="white"/>
</clipPath>
</defs>
</svg>
