<svg id="e4ZLy0krBK21" xmlns="http://www.w3.org/2000/svg" xmlns:xlink="http://www.w3.org/1999/xlink" viewBox="0 0 300 300" shape-rendering="geometricPrecision" text-rendering="geometricPrecision" project-id="ee4fa2ecd86b409aa82fcf6e00b00e4e" export-id="24a9b2ca9fc548d58b08804a215c7e09" cached="false"><rect width="217.779763" height="187.625642" rx="11" ry="11" transform="matrix(1.209235 0 0 1.121425 18.32654 44.795957)" fill="#fff" stroke="#000"/><path d="M18.32654,57.13163c0-6.81281,5.95532-12.33567,13.30159-12.33567h236.74374c7.34626,0,13.30159,5.52287,13.30159,12.33567v9.6316h-263.34691l-.00001-9.6316Z" fill="#fff" stroke="#000"/><ellipse rx="8.601785" ry="8.601785" transform="matrix(.719217 0 0 0.719217 40.094814 55.779595)" fill="#fff" stroke="#000"/><ellipse rx="8.601785" ry="8.601785" transform="matrix(.719217 0 0 0.719217 59.507072 55.779595)" fill="#fff" stroke="#000"/><ellipse rx="8.601785" ry="8.601785" transform="matrix(.719217 0 0 0.719217 79.222647 55.779595)" fill="#fff" stroke="#000"/><rect width="104.294747" height="95.098279" rx="4" ry="4" transform="matrix(1.101853 0 0 1 35.082521 84.184027)" fill="#fdfdfd" stroke="#000"/><rect width="104.294747" height="95.098279" rx="4" ry="4" transform="matrix(1.101853 0 0 1 46.970166 102.450861)" fill="#fdfdfd" stroke="#000"/><path d="M62.16175,244.01716c0-3.20098,3.14982-5.7959,7.03531-5.7959h169.3659c3.8855,0,7.03531,2.59491,7.03531,5.7959v11.18689h-183.43652v-11.18689Z" fill="#fdfdfd" stroke="#000"/><line x1="-49.451105" y1="0" x2="49.451105" y2="0" transform="matrix(.829156 0 0 1 214.33875 114.231385)" fill="none" stroke="#000" stroke-width="10" stroke-linecap="round"/><line x1="-49.451105" y1="0" x2="49.451105" y2="0" transform="translate(150 222.626301)" fill="none" stroke="#000" stroke-width="10" stroke-linecap="round"/><line x1="-49.451105" y1="0" x2="49.451105" y2="0" transform="matrix(.574435 0 0 1 214.33875 141.231385)" fill="none" stroke="#000" stroke-width="10" stroke-linecap="round"/></svg>
